<?xml version="1.0" standalone="no"?>
<!DOCTYPE svg PUBLIC "-//W3C//DTD SVG 20010904//EN"
 "http://www.w3.org/TR/2001/REC-SVG-20010904/DTD/svg10.dtd">
<svg version="1.0" xmlns="http://www.w3.org/2000/svg"
 width="700.000000pt" height="700.000000pt" viewBox="0 0 700.000000 700.000000"
 preserveAspectRatio="xMidYMid meet">
<metadata>
Created by potrace 1.11, written by Peter Selinger 2001-2013
</metadata>
<g transform="translate(0.000000,700.000000) scale(0.100000,-0.100000)"
fill="#000000" stroke="none">
<path d="M3388 5255 c-2 -2 -75 -5 -163 -9 -88 -3 -176 -8 -195 -10 -19 -2
-69 -7 -110 -11 -69 -5 -365 -47 -435 -60 -25 -5 -174 -38 -225 -50 -214 -49
-452 -125 -650 -207 -192 -79 -290 -129 -438 -221 -341 -212 -571 -444 -704
-712 -50 -99 -74 -173 -103 -310 -13 -62 -13 -243 1 -325 58 -365 302 -697
709 -967 213 -140 345 -210 570 -301 134 -54 480 -164 585 -187 150 -33 301
-62 365 -72 17 -2 56 -8 87 -14 32 -5 77 -12 100 -14 24 -2 66 -7 93 -11 28
-4 73 -8 100 -10 28 -2 97 -6 155 -11 195 -15 859 -6 890 12 3 1 46 6 95 10
50 4 92 8 95 10 5 3 47 9 140 21 31 4 153 25 235 40 96 17 412 101 540 143
197 64 486 187 600 255 227 135 368 239 508 376 369 357 494 763 367 1191 -71
237 -218 444 -485 679 -57 50 -200 147 -345 234 -262 157 -621 294 -1040 396
-104 25 -141 33 -220 46 -14 3 -47 9 -75 14 -88 16 -238 36 -345 45 -226 20
-333 26 -527 29 -95 2 -174 2 -175 1z m357 -190 c210 -8 316 -16 395 -30 14
-2 52 -7 85 -10 32 -4 62 -8 65 -10 3 -2 28 -6 55 -9 41 -4 121 -19 325 -61 8
-2 49 -12 90 -23 533 -141 927 -329 1242 -591 230 -193 395 -435 437 -642 20
-99 21 -114 22 -194 1 -369 -267 -741 -746 -1035 -162 -100 -423 -218 -646
-294 -132 -44 -345 -104 -429 -120 -14 -2 -45 -9 -70 -15 -48 -11 -62 -13
-155 -29 -57 -10 -90 -16 -180 -28 -22 -3 -51 -8 -65 -10 -14 -2 -56 -7 -95
-10 -38 -3 -81 -7 -95 -10 -137 -23 -746 -23 -970 1 -57 6 -124 14 -175 20
-22 3 -60 7 -85 10 -25 3 -52 8 -60 10 -8 2 -33 6 -55 9 -22 3 -65 10 -95 16
-30 6 -66 13 -80 15 -206 38 -596 156 -770 232 -124 55 -335 162 -411 209
-349 216 -593 482 -688 752 -16 45 -28 82 -26 82 1 0 -3 25 -11 55 -12 55 -12
238 0 300 132 641 985 1179 2156 1359 142 22 157 24 255 31 50 4 93 9 97 11 4
3 100 7 215 10 114 4 209 7 210 8 2 1 41 0 258 -9z"/>
<path d="M2715 4546 c-7 -17 -43 -116 -80 -221 -79 -224 -256 -725 -263 -742
-3 -10 22 -13 107 -13 l110 0 10 38 c6 20 17 67 27 104 l16 67 188 1 188 0 34
-105 33 -105 113 0 c61 0 112 2 112 4 0 4 -310 879 -337 951 l-19 50 -113 1
-113 2 -13 -32z m236 -596 c-12 -7 -230 -4 -238 3 -5 5 81 288 109 360 10 25
16 11 74 -165 35 -106 59 -195 55 -198z"/>
<path d="M3229 4571 c-2 -12 21 -96 116 -426 36 -126 68 -239 71 -250 2 -11
24 -87 47 -170 l44 -150 96 -3 c74 -2 97 0 98 10 0 7 2 20 4 28 15 63 126 623
131 659 7 52 24 79 25 41 0 -14 2 -32 4 -40 2 -8 6 -28 9 -45 3 -16 10 -55 16
-85 6 -30 13 -66 16 -80 3 -14 14 -70 25 -125 12 -55 23 -109 25 -120 2 -11
11 -56 20 -100 9 -44 18 -87 19 -95 2 -8 4 -23 4 -33 1 -16 11 -17 103 -15
l103 3 16 60 c9 33 46 164 82 290 103 360 164 577 175 617 l10 37 -111 -2
-111 -2 -13 -50 c-7 -27 -15 -59 -17 -70 -2 -11 -23 -103 -46 -205 -38 -168
-56 -248 -78 -365 -8 -39 -8 -39 -25 45 -9 47 -18 96 -21 110 -3 14 -16 86
-31 160 -14 74 -28 146 -31 160 -2 14 -6 34 -9 46 -3 12 -7 36 -10 55 -3 19
-9 50 -13 69 l-8 35 -109 0 -110 0 -27 -140 c-14 -77 -29 -153 -32 -170 -3
-16 -8 -41 -11 -55 -6 -28 -41 -219 -50 -265 -3 -16 -9 -43 -13 -60 -8 -28 -9
-27 -17 25 -4 30 -34 172 -67 315 -63 277 -65 283 -74 331 l-6 31 -109 0 c-60
0 -110 -3 -110 -6z"/>
<path d="M4746 4476 c-19 -56 -96 -274 -171 -486 -76 -212 -140 -393 -142
-403 -5 -16 3 -18 97 -15 l102 3 32 100 32 100 186 2 c137 2 188 -1 195 -10 5
-7 22 -54 38 -104 l29 -93 114 0 c105 0 114 1 107 18 -4 9 -72 202 -152 427
-79 226 -157 444 -172 485 l-27 75 -116 1 -117 1 -35 -101z m193 -309 c29 -89
57 -173 63 -186 6 -15 5 -26 -1 -30 -12 -8 -229 -6 -237 1 -6 6 108 378 116
378 3 0 29 -73 59 -163z"/>
<path d="M2045 4197 c0 -339 -2 -376 -18 -400 -26 -41 -60 -58 -115 -60 -93
-2 -142 55 -142 164 0 45 -4 68 -12 71 -7 2 -49 4 -93 4 l-80 -1 1 -95 c2
-114 24 -171 87 -225 68 -58 136 -79 257 -80 96 0 110 2 157 27 76 40 117 81
144 140 24 53 24 54 24 440 l0 388 -105 0 -105 0 0 -373z"/>
<path d="M3372 3315 c-76 -18 -192 -78 -252 -132 -180 -161 -238 -416 -148
-643 61 -153 197 -278 359 -330 95 -31 246 -33 329 -6 205 68 361 236 403 436
85 405 -286 767 -691 675z m265 -140 c185 -62 301 -223 301 -415 0 -211 -147
-392 -353 -435 -143 -30 -287 15 -395 124 -154 154 -171 404 -37 574 50 63 67
78 133 117 96 56 244 71 351 35z"/>
<path d="M3415 3081 c-93 -23 -181 -98 -223 -189 -23 -49 -27 -70 -27 -147 1
-83 3 -95 34 -152 66 -123 174 -186 312 -184 184 2 335 161 332 348 -3 134
-96 266 -220 312 -50 19 -156 25 -208 12z m170 -150 c43 -19 91 -69 107 -110
24 -65 5 -153 -46 -209 -75 -84 -225 -80 -298 6 -137 163 44 401 237 313z"/>
<path d="M859 3288 c-72 -27 66 -212 176 -236 40 -9 143 -8 240 2 28 3 88 8
135 11 47 3 105 8 130 10 25 2 79 7 120 10 126 9 213 16 260 20 25 2 90 7 145
10 55 3 116 8 135 10 19 2 73 7 120 10 47 3 114 8 150 10 121 9 205 15 255 19
28 3 95 7 150 11 l100 6 57 57 58 57 -1106 0 c-608 0 -1114 -3 -1125 -7z"/>
<path d="M3971 3231 l58 -58 69 -2 c38 -1 78 -3 89 -5 18 -4 59 -7 273 -21 41
-3 95 -8 120 -10 25 -2 90 -7 145 -10 55 -3 116 -8 135 -10 19 -2 73 -7 120
-10 47 -3 110 -8 140 -10 148 -12 180 -15 245 -19 78 -6 206 -15 275 -21 25
-2 86 -7 135 -11 166 -14 211 -7 284 46 43 31 101 121 101 155 0 12 -5 26 -12
33 -9 9 -272 12 -1124 12 l-1111 0 58 -59z"/>
<path d="M2859 3086 c-2 -2 -33 -6 -69 -10 -36 -3 -76 -8 -90 -10 -22 -4 -100
-14 -255 -32 -22 -2 -56 -7 -75 -9 -19 -3 -55 -7 -80 -10 -25 -2 -61 -6 -80
-9 -19 -3 -62 -8 -95 -11 -33 -3 -73 -8 -90 -10 -35 -5 -338 -41 -425 -50 -14
-1 -52 -5 -85 -9 -33 -4 -73 -8 -90 -11 -16 -2 -52 -7 -80 -10 -89 -10 -140
-17 -157 -22 -49 -13 12 -92 107 -141 61 -31 150 -37 248 -16 37 7 118 23 180
34 61 11 146 27 187 35 41 7 91 16 110 20 19 3 54 10 78 16 23 5 59 12 80 15
20 3 141 25 267 49 127 24 272 51 323 60 l93 17 30 59 29 59 -28 0 c-16 0 -31
-2 -33 -4z"/>
<path d="M4081 3084 c7 -13 25 -55 37 -85 9 -22 19 -27 83 -38 41 -7 117 -21
169 -32 52 -10 108 -20 123 -23 36 -6 283 -53 322 -60 17 -4 44 -9 60 -12 17
-3 100 -18 185 -34 85 -16 169 -32 185 -35 17 -2 41 -7 55 -10 14 -3 52 -10
85 -16 33 -6 74 -14 90 -18 17 -3 62 -6 100 -6 56 1 81 6 127 29 53 26 128 94
128 115 0 18 -27 29 -90 35 -36 4 -76 9 -90 11 -14 2 -50 7 -81 10 -31 3 -66
7 -77 10 -11 2 -53 6 -94 10 -40 3 -80 8 -88 10 -8 2 -42 7 -75 10 -68 6 -134
14 -185 20 -19 3 -55 7 -80 10 -25 3 -61 7 -80 10 -19 2 -57 7 -85 10 -27 3
-106 12 -175 20 -69 8 -147 17 -175 20 -27 3 -61 8 -75 10 -14 2 -50 7 -80 10
-30 4 -64 8 -75 10 -103 14 -147 17 -144 9z"/>
<path d="M2775 2849 c-16 -5 -43 -11 -58 -14 -15 -3 -56 -12 -90 -21 -70 -17
-92 -22 -126 -29 -13 -2 -62 -13 -110 -25 -47 -11 -142 -33 -211 -49 -419 -97
-479 -113 -495 -131 -16 -18 -16 -20 10 -44 38 -35 128 -68 205 -73 61 -4 79
0 285 72 121 42 315 109 432 148 l212 72 1 53 c0 56 -2 57 -55 41z"/>
<path d="M4169 2843 c-4 -37 -3 -86 2 -95 4 -6 83 -37 175 -68 93 -32 255 -88
359 -125 303 -106 305 -106 369 -106 110 0 257 70 241 113 -12 30 -29 35 -615
169 -168 38 -350 81 -405 94 -108 27 -125 29 -126 18z"/>
<path d="M4145 2575 c-9 -32 -15 -58 -13 -60 2 -1 53 -33 113 -70 61 -37 124
-77 140 -89 71 -52 169 -73 255 -54 25 5 54 11 65 14 62 12 75 17 86 30 10 12
9 18 -2 28 -8 7 -147 66 -309 131 -162 64 -300 119 -307 122 -7 3 -18 -18 -28
-52z"/>
<path d="M2525 2498 c-165 -65 -306 -125 -313 -132 -35 -34 86 -80 213 -80 64
-1 89 4 125 21 39 20 305 185 317 197 9 9 -20 116 -31 115 -6 -1 -146 -55
-311 -121z"/>
<path d="M2837 2334 c-49 -36 -87 -70 -85 -77 6 -19 68 -45 123 -51 102 -13
260 -18 250 -9 -5 5 -31 26 -57 46 -26 21 -66 65 -89 97 -23 33 -45 60 -48 60
-3 0 -46 -30 -94 -66z"/>
<path d="M4043 2359 c-43 -63 -87 -111 -132 -144 -22 -16 -41 -33 -41 -37 0
-3 24 -5 53 -3 28 2 88 7 132 10 123 9 195 33 195 65 0 9 -40 46 -90 82 l-89
68 -28 -41z"/>
</g>
</svg>
